# xmcd CD database file
#
# Track frame offsets:
#	150
#	19045
#	38642
#	59245
#	76570
#	91132
#	107490
#	123713
#	142450
#	159198
#	178536
#	196321
#	211606
#	229233
#	245076
#	259301
#	278938
#	295023
#	315446
#	333193
#
# Disc length: 4716 seconds
#
# Revision: 0
# Processed by: cddbd v1.4PL0 Copyright (c) Steve Scherf et al.
# Submitted via: CDex 1.50
#
DISCID=19126a14
DTITLE=Westlife - The Gratst Hits
DYEAR=2002
DGENRE=New Age
TTITLE0=Written in the stars
TTITLE1=How does it feel
TTITLE2=Tonight
TTITLE3=Love takes two
TTITLE4=Miss you nights
TTITLE5=Flying without wings(Featuring BOA)
TTITLE6=Crying girl
TTITLE7=Swear it again(radio edit)
TTITLE8=If I let you go(radio edit)
TTITLE9=I have a dream(remix)
TTITLE10=Fool again(2000 remix)
TTITLE11=Against all odds(with mariah carey)
TTITLE12=My Lovel(radio edit)
TTITLE13=Lay my love on you
TTITLE14=Uptown girl(radio edit)
TTITLE15=Queen of my heart(radio edit)
TTITLE16=World of our own(us mix)
TTITLE17=Bop Bop baby
TTITLE18=When you're looking like that(single remix)
TTITLE19=Unbreakable(sigle remix)
EXTD=YEAR: 2002
EXTT0=
EXTT1=
EXTT2=
EXTT3=
EXTT4=
EXTT5=
EXTT6=
EXTT7=
EXTT8=
EXTT9=
EXTT10=
EXTT11=
EXTT12=
EXTT13=
EXTT14=
EXTT15=
EXTT16=
EXTT17=
EXTT18=
EXTT19=
PLAYORDER=
